<?xml version="1.0" encoding="iso-8859-1"?>
<!-- Generator: Adobe Illustrator 19.0.0, SVG Export Plug-In . SVG Version: 6.00 Build 0)  -->
<svg version="1.1" id="Capa_1" xmlns="http://www.w3.org/2000/svg" xmlns:xlink="http://www.w3.org/1999/xlink" x="0px" y="0px"
	 viewBox="0 0 512 512" style="enable-background:new 0 0 512 512;" xml:space="preserve">
<g>
	<g>
		<path d="M482,327v-65H353.667c4.819-14.54,7.333-30.106,7.333-46c0-13.832-1.862-27.303-5.531-40.188
			C367.555,165.913,376.227,160,386,160v-30c-5.582,0-10.787,0.844-15.703,2.312C364.505,79.79,323.207,37.809,271,30.978V0h-30
			v30.978c-52.207,6.831-93.505,48.812-99.297,101.334C136.787,130.844,131.581,130,126,130v30c9.773,0,18.445,5.914,30.531,15.812
			C152.862,188.697,151,202.168,151,216c0,15.902,2.511,31.463,7.33,46H30v65H0v120h30v65h452v-65h30V327H482z M171,145
			c0-25.907,11.664-49.128,30-64.731V125h30V63.757C238.908,61.319,247.302,60,256,60s17.092,1.319,25,3.757V125h30V80.269
			c18.336,15.603,30,38.825,30,64.731v3.935c-3.336,2.628-6.604,5.356-9.848,8.067C311.741,173.225,291.668,190,256,190
			c-35.668,0-55.741-16.775-75.152-32.998c-3.244-2.711-6.511-5.439-9.848-8.067V145z M331,216c0,16.239-3.251,31.966-9.433,46
			H190.431c-6.183-14.032-9.431-29.751-9.431-46c0-6.629,0.548-13.136,1.6-19.494C200.642,209.134,223.41,220,256,220
			c32.59,0,55.358-10.866,73.4-23.494C330.453,202.864,331,209.372,331,216z M30,357h30v60H30V357z M452,482H60v-35h30V327H60v-35
			h392v35h-30v120h30V482z M482,417h-30v-60h30V417z"/>
	</g>
</g>
<g>
</g>
<g>
</g>
<g>
</g>
<g>
</g>
<g>
</g>
<g>
</g>
<g>
</g>
<g>
</g>
<g>
</g>
<g>
</g>
<g>
</g>
<g>
</g>
<g>
</g>
<g>
</g>
<g>
</g>
</svg>
