<svg xmlns="http://www.w3.org/2000/svg" width="22" height="22" viewBox="0 0 128 128">
  <title>FOSSIL FUELS</title>
  <g>
    <path d="M121,119.25H69.989V79.75H121a1.75,1.75,0,0,0,0-3.5h-7.455V31.314a9.761,9.761,0,0,0-9.75-9.75H89.752V19.636A5.756,5.756,0,0,0,84,13.886H72.033a17.269,17.269,0,0,0-17.25,17.25V50.2H45.918L44.732,7a1.751,1.751,0,0,0-1.75-1.7H30.194A1.751,1.751,0,0,0,28.444,7L27.259,50.2H16.2a1.75,1.75,0,0,0-1.75,1.75v24.3H7a1.75,1.75,0,0,0,0,3.5H58.011v39.5H7a1.75,1.75,0,0,0,0,3.5H121a1.75,1.75,0,0,0,0-3.5Zm-45.792-43v-24.3a1.75,1.75,0,0,0-1.75-1.75h-7.5V39.428h44.085V76.25Zm34.837-44.936v4.614H65.96V31.314a6.257,6.257,0,0,1,6.25-6.25H103.8A6.257,6.257,0,0,1,110.045,31.314Zm-51.762-.178a13.765,13.765,0,0,1,13.75-13.75H84a2.253,2.253,0,0,1,2.25,2.25v1.928H72.21a9.761,9.761,0,0,0-9.75,9.75V50.2H58.283ZM31.9,8.8H41.28L42.416,50.2H30.76ZM17.955,53.7H71.708V76.25H17.955ZM61.511,79.75h4.978v39.5H61.511Z"/>
    <path d="M86.568,89.005a2.15,2.15,0,1,0,2.15-2.15A2.15,2.15,0,0,0,86.568,89.005Z"/>
    <path d="M107.6,106.264a2.15,2.15,0,1,0,2.15,2.15A2.15,2.15,0,0,0,107.6,106.264Z"/>
    <circle cx="15.299" cy="107.422" r="2.15"/>
    <path d="M25.747,89.667a2.15,2.15,0,1,0-2.15,2.15A2.151,2.151,0,0,0,25.747,89.667Z"/>
    <path d="M36.738,108.414a2.15,2.15,0,1,0-2.15,2.15A2.151,2.151,0,0,0,36.738,108.414Z"/>
    <path d="M47.968,95.572a2.15,2.15,0,1,0-2.15,2.15A2.151,2.151,0,0,0,47.968,95.572Z"/>
    <path d="M112.9,93.422a2.15,2.15,0,1,0-2.15,2.15A2.151,2.151,0,0,0,112.9,93.422Z"/>
    <circle cx="82.37" cy="105.272" r="2.15"/>
    <path d="M28.207,59.535H25.453a1.75,1.75,0,0,0,0,3.5h2.754a1.75,1.75,0,0,0,0-3.5Z"/>
    <path d="M40.208,59.535H37.454a1.75,1.75,0,0,0,0,3.5h2.754a1.75,1.75,0,0,0,0-3.5Z"/>
    <path d="M52.209,59.535H49.455a1.75,1.75,0,0,0,0,3.5h2.754a1.75,1.75,0,0,0,0-3.5Z"/>
    <path d="M61.457,63.035H64.21a1.75,1.75,0,0,0,0-3.5H61.457a1.75,1.75,0,1,0,0,3.5Z"/>
  </g>
</svg>
