<?xml version="1.0" encoding="iso-8859-1"?>
<!-- Generator: Adobe Illustrator 19.0.0, SVG Export Plug-In . SVG Version: 6.00 Build 0)  -->
<svg version="1.1" id="Capa_1" xmlns="http://www.w3.org/2000/svg" xmlns:xlink="http://www.w3.org/1999/xlink" x="0px" y="0px"
	 viewBox="0 0 512 512" style="enable-background:new 0 0 512 512;" xml:space="preserve">
<g>
	<g>
		<g>
			<circle cx="386" cy="341" r="20"/>
			<circle cx="146" cy="341" r="20"/>
			<path d="M512,86H82v28.938L99.518,146H62.293l-10.701,64.208L0,230.845V356h62.352c7.108,39.736,41.898,70,83.648,70
				s76.539-30.264,83.648-70h72.705c7.108,39.736,41.898,70,83.648,70c46.869,0,85-38.131,85-85c0-46.869-38.131-85-85-85
				c-1.815,0-3.612,0.077-5.4,0.189L512,190.256V86z M62.352,326H30v-74.845L67.888,236H115v-30H82.707l5-30h28.731l46.029,81.615
				C157.137,256.564,151.634,256,146,256C104.251,256,69.461,286.264,62.352,326z M146,396c-30.327,0-55-24.673-55-55
				c0-30.327,24.673-55,55-55c30.327,0,55,24.673,55,55C201,371.327,176.327,396,146,396z M222.046,302.184L117.041,116h71.198
				l89.3,158.339L222.046,302.184z M302.352,326h-60.878l79.855-40.069C311.755,297.156,305.055,310.89,302.352,326z
				 M304.384,260.868L222.681,116h65.558l67.243,119.229L304.384,260.868z M386,286c30.327,0,55,24.673,55,55
				c0,30.327-24.673,55-55,55c-30.327,0-55-24.673-55-55C331,310.673,355.673,286,386,286z M382.327,221.759L322.681,116h65.558
				l45.185,80.119L382.327,221.759z M482,171.744l-21.731,10.904L422.681,116H482V171.744z"/>
		</g>
	</g>
</g>
<g>
</g>
<g>
</g>
<g>
</g>
<g>
</g>
<g>
</g>
<g>
</g>
<g>
</g>
<g>
</g>
<g>
</g>
<g>
</g>
<g>
</g>
<g>
</g>
<g>
</g>
<g>
</g>
<g>
</g>
</svg>
