<svg xmlns="http://www.w3.org/2000/svg" width="128" height="128" viewBox="0 0 128 128">
  <title>INCREASE</title>
  <g>
    <path d="M19.035,25.25h-8a1.75,1.75,0,1,0,0,3.5h4.25V31a1.75,1.75,0,0,0,3.5,0V28.75h.25a5.75,5.75,0,0,0,0-11.5h-4a2.25,2.25,0,0,1,0-4.5h8a1.75,1.75,0,0,0,0-3.5h-4.25V7a1.75,1.75,0,0,0-3.5,0V9.25h-.25a5.75,5.75,0,0,0,0,11.5h4a2.25,2.25,0,0,1,0,4.5Z"/>
    <path d="M121,119.25H7a1.75,1.75,0,0,0,0,3.5H121a1.75,1.75,0,0,0,0-3.5Z"/>
    <path d="M121,31.872H100.93a1.749,1.749,0,0,0-1.75,1.75v77.933a1.75,1.75,0,0,0,1.75,1.75H121a1.751,1.751,0,0,0,1.75-1.75V33.622A1.75,1.75,0,0,0,121,31.872Zm-1.75,77.933H102.68V35.372h16.57Z"/>
    <path d="M69.62,42.857a1.75,1.75,0,0,0-1.75,1.75v66.948a1.75,1.75,0,0,0,1.75,1.75H89.69a1.751,1.751,0,0,0,1.75-1.75V44.607a1.751,1.751,0,0,0-1.75-1.75Zm18.32,66.948H71.37V46.357H87.94Z"/>
    <path d="M38.31,53.842a1.751,1.751,0,0,0-1.75,1.75v55.963a1.751,1.751,0,0,0,1.75,1.75H58.38a1.75,1.75,0,0,0,1.75-1.75V55.592a1.75,1.75,0,0,0-1.75-1.75Zm18.32,55.963H40.06V57.342H56.63Z"/>
    <path d="M7,113.305H27.07a1.75,1.75,0,0,0,1.75-1.75V66.578a1.75,1.75,0,0,0-1.75-1.75H7a1.751,1.751,0,0,0-1.75,1.75v44.977A1.751,1.751,0,0,0,7,113.305ZM8.75,68.328H25.32v41.477H8.75Z"/>
    <path d="M7,47.941H27.07a1.748,1.748,0,0,0,1.223-.5l10.73-10.487H58.38a1.75,1.75,0,0,0,1.223-.5l10.73-10.487H89.69a1.749,1.749,0,0,0,1.223-.5l10.73-10.487h15.133l-3.248,3.248A1.75,1.75,0,0,0,116,20.708l6.235-6.236a1.748,1.748,0,0,0,0-2.474L116,5.763a1.749,1.749,0,0,0-2.474,2.474l3.247,3.248H100.93a1.754,1.754,0,0,0-1.224.5L88.977,22.471H69.62a1.75,1.75,0,0,0-1.224.5L57.667,33.456H38.31a1.749,1.749,0,0,0-1.223.5L26.357,44.441H7a1.75,1.75,0,0,0,0,3.5Z"/>
  </g>
</svg>
