<?xml version="1.0" encoding="iso-8859-1"?>
<!-- Generator: Adobe Illustrator 19.0.0, SVG Export Plug-In . SVG Version: 6.00 Build 0)  -->
<svg version="1.1" id="Capa_1" xmlns="http://www.w3.org/2000/svg" xmlns:xlink="http://www.w3.org/1999/xlink" x="0px" y="0px"
	 viewBox="0 0 512 512" style="enable-background:new 0 0 512 512;" xml:space="preserve">
<g>
	<g>
		<g>
			<path d="M467,30c-24.813,0-45,20.187-45,45v15H90V75c0-24.813-20.187-45-45-45S0,50.187,0,75v362c0,24.813,20.187,45,45,45h422
				c24.813,0,45-20.187,45-45V75C512,50.187,491.813,30,467,30z M45,452c-8.271,0-15-6.729-15-15s6.729-15,15-15s15,6.729,15,15
				S53.271,452,45,452z M60,394.58c-4.695-1.665-9.742-2.58-15-2.58s-10.305,0.915-15,2.58V75c0-8.271,6.729-15,15-15
				s15,6.729,15,15V394.58z M87.42,452c1.665-4.695,2.58-9.742,2.58-15V120h332v317c0,5.258,0.915,10.305,2.58,15H87.42z M467,452
				c-8.271,0-15-6.729-15-15s6.729-15,15-15s15,6.729,15,15S475.271,452,467,452z M482,394.58c-4.695-1.665-9.742-2.58-15-2.58
				s-10.305,0.915-15,2.58V75c0-8.271,6.729-15,15-15s15,6.729,15,15V394.58z"/>
			<path d="M303.5,245c-3.392,0-6.726,0.248-10,0.687V180h-140v140h75c0,41.355,33.645,75,75,75c41.355,0,75-33.645,75-75
				C378.5,278.645,344.855,245,303.5,245z M234.781,290H183.5v-80h80v46.604C250.895,264.586,240.824,276.212,234.781,290z
				 M303.5,365c-24.813,0-45-20.187-45-45h35v-43.866c3.219-0.734,6.562-1.134,10-1.134c24.813,0,45,20.187,45,45
				S328.313,365,303.5,365z"/>
		</g>
	</g>
</g>
<g>
</g>
<g>
</g>
<g>
</g>
<g>
</g>
<g>
</g>
<g>
</g>
<g>
</g>
<g>
</g>
<g>
</g>
<g>
</g>
<g>
</g>
<g>
</g>
<g>
</g>
<g>
</g>
<g>
</g>
</svg>
