<?xml version="1.0" encoding="utf-8"?>
<!-- Generator: Adobe Illustrator 18.0.0, SVG Export Plug-In . SVG Version: 6.00 Build 0)  -->
<!DOCTYPE svg PUBLIC "-//W3C//DTD SVG 1.1//EN" "http://www.w3.org/Graphics/SVG/1.1/DTD/svg11.dtd">
<svg version="1.1" id="Icon_Set" xmlns="http://www.w3.org/2000/svg" xmlns:xlink="http://www.w3.org/1999/xlink" x="0px" y="0px"
	 viewBox="0 0 512 512" style="enable-background:new 0 0 512 512;" xml:space="preserve">
<style type="text/css">
	.st0{fill:#4C4372;}
	.st1{fill:#F0C48A;}
	.st2{fill:#7BABF1;}
	.st3{fill:#D3E6F8;}
	.st4{fill:#A4CFF2;}
	.st5{fill:#FD919E;}
	.st6{fill:#E8677D;}
	.st7{fill:#FFFFFF;}
</style>
<g id="_x3C_Group_x3E__16_">
	<g>
		<g>
			<g>
				<circle class="st1" cx="256" cy="256" r="207"/>
			</g>
		</g>
		<g>
			<g>
				<g>
					<rect x="5.863" y="59.599" class="st3" width="93.957" height="392.802"/>
				</g>
			</g>
			<g>
				<g>
					<rect x="67.89" y="59.599" class="st4" width="31.93" height="392.802"/>
				</g>
			</g>
			<g>
				<g>
					<rect x="60.489" y="116.693" class="st2" width="39.331" height="278.615"/>
				</g>
			</g>
			<g>
				<g>
					<path class="st0" d="M99.82,458.263H5.863c-3.238,0-5.863-2.625-5.863-5.863V59.599c0-3.238,2.625-5.863,5.863-5.863H99.82
						c3.238,0,5.863,2.625,5.863,5.863v392.802C105.682,455.638,103.057,458.263,99.82,458.263z M11.725,446.538h82.232V65.462
						H11.725V446.538z"/>
				</g>
			</g>
			<g>
				<g>
					<path class="st0" d="M99.82,401.17H60.489c-3.238,0-5.863-2.625-5.863-5.862V116.693c0-3.238,2.625-5.863,5.863-5.863H99.82
						c3.238,0,5.863,2.625,5.863,5.863v278.615C105.682,398.545,103.058,401.17,99.82,401.17z M66.352,389.445h27.605V122.555
						H66.352V389.445z"/>
				</g>
			</g>
			<g>
				<g>
					<rect x="60.489" y="152.059" class="st5" width="383.675" height="207.883"/>
				</g>
			</g>
			<g>
				<g>
					<rect x="413.551" y="148.138" class="st6" width="31.93" height="211.803"/>
				</g>
			</g>
			<g>
				<g>
					<path class="st3" d="M474.895,398.608h-30.73V113.392h30.73c17.255,0,31.243,13.988,31.243,31.243v222.73
						C506.137,384.62,492.149,398.608,474.895,398.608z"/>
				</g>
			</g>
			<g>
				<g>
					<path class="st4" d="M479.588,398.608L479.588,398.608V113.392l0,0c14.031,0,25.404,11.374,25.404,25.404v234.407
						C504.992,387.234,493.618,398.608,479.588,398.608z"/>
				</g>
			</g>
			<g>
				<g>
					<path class="st0" d="M444.164,365.803H60.489c-3.238,0-5.863-2.625-5.863-5.863V152.059c0-3.238,2.625-5.863,5.863-5.863
						h383.675c3.238,0,5.863,2.625,5.863,5.863v207.882C450.027,363.178,447.402,365.803,444.164,365.803z M66.352,354.078h371.95
						V157.922H66.352V354.078z"/>
				</g>
			</g>
			<g>
				<g>
					<circle class="st7" cx="392.993" cy="256" r="20.557"/>
				</g>
			</g>
			<g>
				<g>
					<path class="st0" d="M474.894,404.47h-30.73c-3.238,0-5.863-2.625-5.863-5.863V113.392c0-3.238,2.625-5.863,5.863-5.863h30.73
						c20.46,0,37.106,16.645,37.106,37.105v222.731C512,387.825,495.354,404.47,474.894,404.47z M450.027,392.745h24.867
						c13.995,0,25.381-11.385,25.381-25.38V144.635c0-13.994-11.385-25.38-25.381-25.38h-24.867V392.745z"/>
				</g>
			</g>
			<g>
				<g>
					<path class="st0" d="M280.013,334.012c-0.102,0-0.205-0.003-0.309-0.008c-2.675-0.141-4.914-2.076-5.441-4.702l-23.434-116.905
						l-32.01,76.051c-0.985,2.341-3.357,3.783-5.896,3.567c-2.531-0.213-4.636-2.031-5.215-4.505l-12.104-51.662l-30.75,74.404
						c-0.946,2.287-3.226,3.74-5.697,3.616c-2.472-0.118-4.604-1.776-5.327-4.143l-30.55-99.985l-25.792,61.344
						c-0.858,2.041-2.793,3.425-5.002,3.576c-2.212,0.163-4.315-0.951-5.445-2.857l-31.593-53.25
						c-1.652-2.784-0.734-6.382,2.051-8.033c2.785-1.653,6.382-0.734,8.033,2.051l25.657,43.243l27.561-65.549
						c0.957-2.275,3.235-3.7,5.701-3.583c2.465,0.125,4.588,1.782,5.31,4.142l30.504,99.835l31.47-76.145
						c0.973-2.352,3.353-3.801,5.892-3.604c2.538,0.206,4.654,2.027,5.234,4.507l12.149,51.858l32.415-77.011
						c0.999-2.372,3.429-3.817,5.99-3.559c2.562,0.258,4.656,2.156,5.161,4.68l22.676,113.126l24.314-77.851
						c0.765-2.449,3.033-4.114,5.595-4.114c0.016,0,0.031,0,0.047,0c2.581,0.02,4.845,1.726,5.576,4.202l14.418,48.822l9.603-21.922
						c0.934-2.133,3.042-3.51,5.37-3.51h26.26c3.238,0,5.863,2.625,5.863,5.863c0,3.238-2.625,5.863-5.863,5.863h-22.428
						l-14.509,33.122c-0.989,2.256-3.283,3.651-5.739,3.499c-2.458-0.155-4.557-1.829-5.254-4.191l-13.501-45.716l-25.397,81.321
						C284.84,332.355,282.565,334.012,280.013,334.012z"/>
				</g>
			</g>
			<g>
				<g>
					<path class="st0" d="M392.993,282.42c-14.568,0-26.42-11.852-26.42-26.42c0-14.568,11.852-26.42,26.42-26.42
						c14.568,0,26.42,11.852,26.42,26.42C419.413,270.568,407.561,282.42,392.993,282.42z M392.993,241.305
						c-8.103,0-14.695,6.592-14.695,14.695c0,8.103,6.592,14.695,14.695,14.695c8.103,0,14.695-6.592,14.695-14.695
						C407.688,247.897,401.096,241.305,392.993,241.305z"/>
				</g>
			</g>
		</g>
	</g>
</g>
</svg>
