<?xml version="1.0" encoding="iso-8859-1"?>
<!-- Generator: Adobe Illustrator 19.0.0, SVG Export Plug-In . SVG Version: 6.00 Build 0)  -->
<svg version="1.1" id="Capa_1" xmlns="http://www.w3.org/2000/svg" xmlns:xlink="http://www.w3.org/1999/xlink" x="0px" y="0px"
	 viewBox="0 0 512 512" style="enable-background:new 0 0 512 512;" xml:space="preserve">
<g>
	<g>
		<path d="M413.5,56c-33.084,0-60,26.916-60,60c0,3.748,0.362,7.41,1.023,10.969l-134.949,62.977
			c-19.592-31.349-52.682-53.43-91.074-58.042V0h-90v512h90V380.097c61.878-7.434,110-60.248,110-124.097
			c0-13.572-2.182-26.642-6.201-38.887l134.924-62.964C378.237,167.486,394.893,176,413.5,176c33.084,0,60-26.916,60-60
			S446.584,56,413.5,56z M98.5,482h-30V30h30V482z M128.5,349.812V162.188c45.281,7.213,80,46.532,80,93.812
			C208.5,303.28,173.781,342.598,128.5,349.812z M413.5,146c-16.542,0-30-13.458-30-30s13.458-30,30-30s30,13.458,30,30
			S430.042,146,413.5,146z"/>
	</g>
</g>
<g>
	<g>
		<polygon points="363.5,301 323.5,301 323.5,246 283.5,331 323.5,331 323.5,386 		"/>
	</g>
</g>
<g>
</g>
<g>
</g>
<g>
</g>
<g>
</g>
<g>
</g>
<g>
</g>
<g>
</g>
<g>
</g>
<g>
</g>
<g>
</g>
<g>
</g>
<g>
</g>
<g>
</g>
<g>
</g>
<g>
</g>
</svg>
