<?xml version="1.0" encoding="iso-8859-1"?>
<!-- Generator: Adobe Illustrator 19.0.0, SVG Export Plug-In . SVG Version: 6.00 Build 0)  -->
<svg version="1.1" id="Capa_1" xmlns="http://www.w3.org/2000/svg" xmlns:xlink="http://www.w3.org/1999/xlink" x="0px" y="0px"
	 viewBox="0 0 512 512" style="enable-background:new 0 0 512 512;" xml:space="preserve">
<g>
	<g>
		<g>
			<path d="M81,304.966V356h20c0,16.569,13.431,30,30,30c16.569,0,30-13.431,30-30c0,16.569,13.431,30,30,30
				c16.569,0,30-13.431,30-30h70c0,16.569,13.431,30,30,30c16.569,0,30-13.431,30-30c0,16.569,13.431,30,30,30
				c16.569,0,30-13.431,30-30h20v-51.034c45.769-6.79,81-46.339,81-93.966c0-52.383-42.617-95-95-95H181V86h-70v30H95
				c-52.383,0-95,42.617-95,95C0,258.627,35.231,298.177,81,304.966z M401,326H111v-20h290V326z M331,146h30v30h-30V146z M95,146
				h206v90h30v-30h30v30h30v-90h26c35.841,0,65,29.159,65,65s-29.159,65-65,65H95c-35.841,0-65-29.159-65-65S59.159,146,95,146z"/>
			<rect y="396" width="512" height="30"/>
		</g>
	</g>
</g>
<g>
</g>
<g>
</g>
<g>
</g>
<g>
</g>
<g>
</g>
<g>
</g>
<g>
</g>
<g>
</g>
<g>
</g>
<g>
</g>
<g>
</g>
<g>
</g>
<g>
</g>
<g>
</g>
<g>
</g>
</svg>
