<svg xmlns="http://www.w3.org/2000/svg" width="128" height="128" viewBox="0 0 128 128">
  <title>PETROL</title>
  <g>
    <path d="M56.567,66.02a1.749,1.749,0,0,0-2.249,0c-.312.261-7.626,6.487-7.626,14.49a8.75,8.75,0,1,0,17.5,0C64.192,72.507,56.878,66.281,56.567,66.02ZM55.442,85.76a5.256,5.256,0,0,1-5.25-5.25c0-4.679,3.423-8.842,5.253-10.733,1.831,1.885,5.247,6.033,5.247,10.733A5.256,5.256,0,0,1,55.442,85.76Z"/>
    <path d="M82.486,14.28H28.4a1.751,1.751,0,0,0-1.75,1.75V45.887a1.75,1.75,0,0,0,1.75,1.75H82.486a1.75,1.75,0,0,0,1.75-1.75V16.03A1.751,1.751,0,0,0,82.486,14.28Zm-1.75,29.857H30.149V17.78H80.736Z"/>
    <path d="M109.334,41.04h-1.529V34.472a.242.242,0,0,1,.034-.125l4.679-8.1a1.752,1.752,0,0,0-.641-2.391l-5.017-2.9a1.751,1.751,0,0,0-2.391.64l-4.651,8.057a9.76,9.76,0,0,0-1.306,4.874V56.139a1.746,1.746,0,0,0,.269.932l7.792,12.37a1.751,1.751,0,0,0,1.481.818h1.39V91.128a3.716,3.716,0,0,1-7.432,0V82.9A7.224,7.224,0,0,0,94.8,75.685h-1.53V11.5a6.257,6.257,0,0,0-6.25-6.25H23.869a6.257,6.257,0,0,0-6.25,6.25v95.733H13.666a1.751,1.751,0,0,0-1.75,1.75V121a1.751,1.751,0,0,0,1.75,1.75H97.219a1.751,1.751,0,0,0,1.75-1.75V108.983a1.751,1.751,0,0,0-1.75-1.75H93.266V79.185H94.8A3.72,3.72,0,0,1,98.512,82.9v8.227a7.216,7.216,0,0,0,14.432,0V70.259h1.39a1.751,1.751,0,0,0,1.75-1.75V47.79A6.758,6.758,0,0,0,109.334,41.04ZM95.469,119.25H15.416v-8.517H95.469Zm-74.35-12.017V11.5a2.753,2.753,0,0,1,2.75-2.75H87.016a2.754,2.754,0,0,1,2.75,2.75v95.733ZM102.849,31.4l3.776-6.54,1.986,1.147-3.8,6.587a3.744,3.744,0,0,0-.5,1.876V41.04h-2.293V34.527A6.264,6.264,0,0,1,102.849,31.4Zm-.837,24.231V44.54h7.322a3.254,3.254,0,0,1,3.25,3.25V66.759H109.02Z"/>
    <path d="M55.442,56.384A21.051,21.051,0,1,0,76.493,77.435,21.075,21.075,0,0,0,55.442,56.384Zm0,38.6A17.551,17.551,0,1,1,72.993,77.435,17.571,17.571,0,0,1,55.442,94.986Z"/>
  </g>
</svg>
