<?xml version="1.0" encoding="utf-8"?>
<!-- Generator: Adobe Illustrator 18.0.0, SVG Export Plug-In . SVG Version: 6.00 Build 0)  -->
<!DOCTYPE svg PUBLIC "-//W3C//DTD SVG 1.1//EN" "http://www.w3.org/Graphics/SVG/1.1/DTD/svg11.dtd">
<svg version="1.1" id="Icon_Set" xmlns="http://www.w3.org/2000/svg" xmlns:xlink="http://www.w3.org/1999/xlink" x="0px" y="0px"
	 viewBox="0 0 512 512" style="enable-background:new 0 0 512 512;" xml:space="preserve">
<style type="text/css">
	.st0{fill:#4C4372;}
	.st1{fill:#F0C48A;}
	.st2{fill:#7BABF1;}
	.st3{fill:#D3E6F8;}
	.st4{fill:#A4CFF2;}
	.st5{fill:#FD919E;}
	.st6{fill:#E8677D;}
	.st7{fill:#FFFFFF;}
</style>
<g id="_x3C_Group_x3E__4_">
	<g>
		<g>
			<g>
				<circle class="st1" cx="256" cy="256" r="207"/>
			</g>
		</g>
		<g>
			<g>
				<g>
					<path class="st5" d="M281.205,169.934H43.539h0c-37.615,27.354-37.615,83.441,0,110.795h0h237.666h0
						C318.819,253.374,318.819,197.288,281.205,169.934L281.205,169.934z"/>
				</g>
			</g>
			<g>
				<g>
					<rect x="124.427" y="172.634" class="st6" width="16.491" height="103.877"/>
				</g>
			</g>
			<g>
				<g>
					<rect x="257.779" y="172.634" class="st6" width="16.491" height="103.877"/>
				</g>
			</g>
			<g>
				<g>
					<path class="st4" d="M438.458,219.933h-18.631v-49.999h-84.689v38.268v94.857h84.689h31.267h35.647v-34.844
						c0-17.452-9.417-33.545-24.632-42.093l0,0C454.887,222.064,446.742,219.933,438.458,219.933z"/>
				</g>
			</g>
			<g>
				<g>
					<path class="st3" d="M440.169,226.122c-7.222-4.058-15.367-6.189-23.651-6.189h-0.956v-49.999h-80.424v38.268v94.857h62.75
						h21.94h9.327h21.94h13.707v-34.844C464.801,250.764,455.383,234.67,440.169,226.122z"/>
				</g>
			</g>
			<g>
				<g>
					<polygon class="st7" points="387.985,272.165 385.674,272.165 354.137,272.165 354.137,191.94 400.209,191.94 400.209,258.164 
											"/>
				</g>
			</g>
			<g>
				<g>
					<polygon class="st3" points="381.984,220.5 381.984,272.165 400.209,258.164 397.402,223.34 					"/>
				</g>
			</g>
			<g>
				<g>
					<path class="st4" d="M424.342,169.934h-93.72c-6.077,0-11.003-4.926-11.003-11.002l0,0c0-6.077,4.926-11.003,11.003-11.003
						h93.72c6.076,0,11.003,4.926,11.003,11.003l0,0C435.345,165.008,430.418,169.934,424.342,169.934z"/>
				</g>
			</g>
			<g>
				<g>
					<rect x="400.209" y="150.464" class="st2" width="30.706" height="17.275"/>
				</g>
			</g>
			<g>
				<g>
					<rect x="354.137" y="191.94" class="st2" width="46.072" height="26.897"/>
				</g>
			</g>
			<g>
				<g>
					<path class="st7" d="M473.044,239.962h-10.79c-6.505,0-11.779,5.274-11.779,11.779l0,0c0,6.506,5.274,11.779,11.779,11.779
						h22.353"/>
				</g>
			</g>
			<g>
				<g>
					<rect x="5.863" y="280.729" class="st4" width="329.274" height="22.331"/>
				</g>
			</g>
			<g>
				<g>
					<polygon class="st4" points="91.176,329.656 506.137,329.656 506.137,303.06 5.863,303.06 					"/>
				</g>
			</g>
			<g>
				<g>
					<rect x="77.527" y="147.929" class="st6" width="37.613" height="22.005"/>
				</g>
			</g>
			<g>
				<g>
					<rect x="209.604" y="147.929" class="st6" width="37.613" height="22.005"/>
				</g>
			</g>
			<g>
				<g>
					<path class="st0" d="M486.741,308.922H335.138c-3.238,0-5.863-2.625-5.863-5.863V169.934c0-3.238,2.625-5.863,5.863-5.863
						h84.689c3.237,0,5.862,2.625,5.862,5.863v44.136h12.769c9.27,0,18.441,2.4,26.522,6.94
						c17.039,9.574,27.623,27.661,27.623,47.205v34.844C492.603,306.297,489.978,308.922,486.741,308.922z M341,297.197h139.878
						v-28.982c0-15.312-8.292-29.482-21.64-36.982c-6.332-3.558-13.517-5.438-20.78-5.438h-18.632c-3.238,0-5.863-2.625-5.863-5.863
						v-44.136H341V297.197z"/>
				</g>
			</g>
			<g>
				<g>
					<path class="st0" d="M335.138,308.922H5.863c-3.238,0-5.863-2.625-5.863-5.863v-22.331c0-3.238,2.625-5.863,5.863-5.863
						h329.275c3.238,0,5.863,2.625,5.863,5.863v22.331C341,306.297,338.375,308.922,335.138,308.922z M11.726,297.197h317.549
						v-10.606H11.726V297.197z"/>
				</g>
			</g>
			<g>
				<g>
					<path class="st0" d="M506.137,335.518H91.176c-0.592,0-1.18-0.09-1.745-0.266L4.118,308.656
						c-2.766-0.862-4.487-3.615-4.051-6.479c0.436-2.864,2.899-4.98,5.796-4.98h500.274c3.238,0,5.863,2.625,5.863,5.863v26.596
						C512,332.893,509.375,335.518,506.137,335.518z M92.069,323.793h408.206v-14.871H44.366L92.069,323.793z"/>
				</g>
			</g>
			<g>
				<g>
					<path class="st0" d="M281.204,286.591H43.539c-1.239,0-2.446-0.393-3.448-1.121c-19.463-14.154-30.625-36.073-30.625-60.139
						c0-24.065,11.163-45.985,30.625-60.139c1.002-0.729,2.209-1.121,3.448-1.121h237.666c1.238,0,2.446,0.393,3.448,1.121
						c19.463,14.154,30.625,36.073,30.625,60.139c0,24.065-11.162,45.985-30.625,60.139
						C283.65,286.198,282.443,286.591,281.204,286.591z M45.491,274.866h233.763c15.468-11.941,24.3-29.889,24.3-49.535
						c0-19.646-8.831-37.594-24.3-49.535H45.491c-15.469,11.941-24.3,29.889-24.3,49.535
						C21.19,244.977,30.022,262.925,45.491,274.866z"/>
				</g>
			</g>
			<g>
				<g>
					<path class="st0" d="M115.14,175.796H77.527c-3.238,0-5.863-2.625-5.863-5.863v-22.005c0-3.238,2.625-5.863,5.863-5.863h37.613
						c3.238,0,5.863,2.625,5.863,5.863v22.005C121.002,173.171,118.377,175.796,115.14,175.796z M83.389,164.071h25.888v-10.28
						H83.389V164.071z"/>
				</g>
			</g>
			<g>
				<g>
					<path class="st0" d="M247.216,175.796h-37.613c-3.238,0-5.863-2.625-5.863-5.863v-22.005c0-3.238,2.625-5.863,5.863-5.863
						h37.613c3.238,0,5.863,2.625,5.863,5.863v22.005C253.079,173.171,250.454,175.796,247.216,175.796z M215.466,164.071h25.887
						v-10.28h-25.887V164.071z"/>
				</g>
			</g>
			<g>
				<g>
					<path class="st0" d="M424.342,175.796h-93.719c-9.3,0-16.865-7.566-16.865-16.866c0-9.3,7.566-16.865,16.865-16.865h93.719
						c9.3,0,16.866,7.565,16.866,16.865C441.207,168.23,433.641,175.796,424.342,175.796z M330.622,153.791
						c-2.834,0-5.14,2.306-5.14,5.14c0,2.835,2.306,5.14,5.14,5.14h93.719c2.834,0,5.14-2.306,5.14-5.14
						c0-2.834-2.306-5.14-5.14-5.14H330.622z"/>
				</g>
			</g>
			<g>
				<g>
					<path class="st0" d="M387.985,278.028h-33.848c-3.238,0-5.863-2.625-5.863-5.863V191.94c0-3.238,2.625-5.863,5.863-5.863
						h46.073c3.238,0,5.863,2.625,5.863,5.863v66.224c0,1.418-0.514,2.788-1.447,3.856l-12.224,14.001
						C391.287,277.296,389.678,278.028,387.985,278.028z M359.999,266.303h25.322l9.026-10.337v-58.163h-34.347V266.303z"/>
				</g>
			</g>
			<g>
				<g>
					<path class="st0" d="M484.608,269.383h-22.353c-9.728,0-17.642-7.914-17.642-17.642c0-9.728,7.914-17.642,17.642-17.642h10.789
						c3.237,0,5.862,2.625,5.862,5.863c0,3.238-2.625,5.863-5.862,5.863h-10.789c-3.262,0-5.917,2.654-5.917,5.917
						c0,3.262,2.655,5.917,5.917,5.917h22.353c3.238,0,5.863,2.625,5.863,5.863C490.47,266.758,487.845,269.383,484.608,269.383z"/>
				</g>
			</g>
			<g>
				<g>
					<path class="st0" d="M400.209,224.7h-46.073c-3.238,0-5.863-2.625-5.863-5.863c0-3.238,2.625-5.863,5.863-5.863h46.073
						c3.238,0,5.863,2.625,5.863,5.863C406.072,222.075,403.447,224.7,400.209,224.7z"/>
				</g>
			</g>
			<g>
				<g>
					<path class="st0" d="M68.24,286.591c-3.238,0-5.863-2.625-5.863-5.863V169.934c0-3.238,2.625-5.863,5.863-5.863
						c3.238,0,5.863,2.625,5.863,5.863v110.795C74.103,283.966,71.478,286.591,68.24,286.591z"/>
				</g>
			</g>
			<g>
				<g>
					<path class="st0" d="M124.427,286.591c-3.238,0-5.863-2.625-5.863-5.863V169.934c0-3.238,2.625-5.863,5.863-5.863
						c3.238,0,5.863,2.625,5.863,5.863v110.795C130.29,283.966,127.664,286.591,124.427,286.591z"/>
				</g>
			</g>
			<g>
				<g>
					<path class="st0" d="M200.317,286.591c-3.238,0-5.863-2.625-5.863-5.863V169.934c0-3.238,2.625-5.863,5.863-5.863
						c3.238,0,5.863,2.625,5.863,5.863v110.795C206.179,283.966,203.554,286.591,200.317,286.591z"/>
				</g>
			</g>
			<g>
				<g>
					<path class="st0" d="M256.504,286.591c-3.238,0-5.863-2.625-5.863-5.863V169.934c0-3.238,2.625-5.863,5.863-5.863
						c3.238,0,5.863,2.625,5.863,5.863v110.795C262.367,283.966,259.742,286.591,256.504,286.591z"/>
				</g>
			</g>
			<g>
				<g>
					<path class="st0" d="M146.044,267.25c-3.238,0-5.863-2.625-5.863-5.863v-91.453c0-3.238,2.625-5.863,5.863-5.863
						c3.238,0,5.863,2.625,5.863,5.863v91.453C151.906,264.625,149.281,267.25,146.044,267.25z"/>
				</g>
			</g>
			<g>
				<g>
					<path class="st0" d="M177.913,267.25c-3.238,0-5.863-2.625-5.863-5.863v-91.453c0-3.238,2.625-5.863,5.863-5.863
						c3.238,0,5.863,2.625,5.863,5.863v91.453C183.775,264.625,181.15,267.25,177.913,267.25z"/>
				</g>
			</g>
			<g>
				<g>
					<path class="st0" d="M173.345,199.715H148.13c-3.238,0-5.863-2.625-5.863-5.863s2.625-5.863,5.863-5.863h25.215
						c3.238,0,5.863,2.625,5.863,5.863S176.583,199.715,173.345,199.715z"/>
				</g>
			</g>
			<g>
				<g>
					<path class="st0" d="M173.345,223.635H148.13c-3.238,0-5.863-2.625-5.863-5.863c0-3.238,2.625-5.863,5.863-5.863h25.215
						c3.238,0,5.863,2.625,5.863,5.863C179.208,221.01,176.583,223.635,173.345,223.635z"/>
				</g>
			</g>
			<g>
				<g>
					<path class="st0" d="M173.345,247.554H148.13c-3.238,0-5.863-2.625-5.863-5.863s2.625-5.863,5.863-5.863h25.215
						c3.238,0,5.863,2.625,5.863,5.863S176.583,247.554,173.345,247.554z"/>
				</g>
			</g>
			<g>
				<g>
					<circle class="st2" cx="422.672" cy="330.398" r="33.673"/>
				</g>
			</g>
			<g>
				<g>
					<circle class="st2" cx="114.457" cy="330.398" r="33.673"/>
				</g>
			</g>
			<g>
				<g>
					<circle class="st2" cx="200.317" cy="330.398" r="33.673"/>
				</g>
			</g>
			<g>
				<g>
					<path class="st0" d="M422.672,369.934c-21.8,0-39.535-17.736-39.535-39.536c0-21.8,17.736-39.536,39.535-39.536
						c21.801,0,39.536,17.736,39.536,39.536C462.208,352.198,444.472,369.934,422.672,369.934z M422.672,302.587
						c-15.335,0-27.81,12.476-27.81,27.811s12.475,27.811,27.81,27.811s27.811-12.476,27.811-27.811
						S438.007,302.587,422.672,302.587z"/>
				</g>
			</g>
			<g>
				<g>
					<path class="st0" d="M114.457,369.934c-21.8,0-39.536-17.736-39.536-39.536c0-21.8,17.736-39.536,39.536-39.536
						c21.8,0,39.536,17.736,39.536,39.536C153.993,352.198,136.257,369.934,114.457,369.934z M114.457,302.587
						c-15.335,0-27.811,12.476-27.811,27.811s12.476,27.811,27.811,27.811s27.811-12.476,27.811-27.811
						S129.792,302.587,114.457,302.587z"/>
				</g>
			</g>
			<g>
				<g>
					<path class="st0" d="M200.317,369.934c-21.8,0-39.536-17.736-39.536-39.536c0-21.8,17.736-39.536,39.536-39.536
						c21.801,0,39.536,17.736,39.536,39.536C239.853,352.198,222.117,369.934,200.317,369.934z M200.317,302.587
						c-15.335,0-27.811,12.476-27.811,27.811s12.476,27.811,27.811,27.811c15.335,0,27.811-12.476,27.811-27.811
						S215.652,302.587,200.317,302.587z"/>
				</g>
			</g>
			<g>
				<g>
					<circle class="st4" cx="114.457" cy="330.398" r="14.04"/>
				</g>
			</g>
			<g>
				<g>
					<circle class="st4" cx="200.317" cy="330.398" r="14.04"/>
				</g>
			</g>
			<g>
				<g>
					<circle class="st4" cx="422.672" cy="330.398" r="14.04"/>
				</g>
			</g>
			<g>
				<g>
					<path class="st0" d="M114.457,350.301c-10.975,0-19.903-8.928-19.903-19.903c0-10.975,8.928-19.903,19.903-19.903
						s19.903,8.928,19.903,19.903C134.36,341.372,125.432,350.301,114.457,350.301z M114.457,322.22
						c-4.509,0-8.178,3.668-8.178,8.178c0,4.509,3.668,8.178,8.178,8.178s8.178-3.668,8.178-8.178
						C122.635,325.889,118.966,322.22,114.457,322.22z"/>
				</g>
			</g>
			<g>
				<g>
					<path class="st0" d="M200.317,350.301c-10.975,0-19.903-8.928-19.903-19.903c0-10.975,8.928-19.903,19.903-19.903
						c10.975,0,19.903,8.928,19.903,19.903C220.22,341.372,211.291,350.301,200.317,350.301z M200.317,322.22
						c-4.51,0-8.178,3.668-8.178,8.178c0,4.509,3.668,8.178,8.178,8.178c4.51,0,8.178-3.668,8.178-8.178
						C208.495,325.889,204.826,322.22,200.317,322.22z"/>
				</g>
			</g>
			<g>
				<g>
					<path class="st0" d="M422.672,350.301c-10.974,0-19.903-8.928-19.903-19.903c0-10.975,8.928-19.903,19.903-19.903
						c10.975,0,19.904,8.928,19.904,19.903C442.576,341.372,433.647,350.301,422.672,350.301z M422.672,322.22
						c-4.51,0-8.178,3.668-8.178,8.178c0,4.509,3.668,8.178,8.178,8.178c4.509,0,8.178-3.668,8.178-8.178
						C430.85,325.889,427.181,322.22,422.672,322.22z"/>
				</g>
			</g>
		</g>
	</g>
</g>
</svg>
