<svg xmlns="http://www.w3.org/2000/svg" width="128" height="128" viewBox="0 0 128 128">
  <title>GAUGE</title>
  <g>
    <path d="M110.75,52A46.75,46.75,0,1,0,54.358,97.745v7.508a4.243,4.243,0,0,0,3.079,4.065V121a1.751,1.751,0,0,0,1.75,1.75h9.626a1.751,1.751,0,0,0,1.75-1.75V109.318a4.243,4.243,0,0,0,3.079-4.065V97.745A46.828,46.828,0,0,0,110.75,52ZM60.937,119.25V109.5h6.126v9.747Zm9.2-14a.751.751,0,0,1-.75.75H58.608a.751.751,0,0,1-.75-.75V98.334a45.55,45.55,0,0,0,12.284,0ZM64,95.25A43.25,43.25,0,1,1,107.25,52,43.3,43.3,0,0,1,64,95.25Z"/>
    <path d="M64,14.25A37.75,37.75,0,1,0,101.75,52,37.793,37.793,0,0,0,64,14.25Zm0,72A34.25,34.25,0,1,1,98.25,52,34.288,34.288,0,0,1,64,86.25Z"/>
    <path d="M78.771,26.415a1.749,1.749,0,0,0-2.39.641L65.74,45.486a6.739,6.739,0,1,0,3.034,1.746L79.412,28.806A1.751,1.751,0,0,0,78.771,26.415ZM64,55.25A3.25,3.25,0,1,1,67.25,52,3.254,3.254,0,0,1,64,55.25Z"/>
    <path d="M41.432,63.009l-2.376,1.372a1.75,1.75,0,1,0,1.75,3.031l2.376-1.372a1.75,1.75,0,1,0-1.75-3.031Z"/>
    <path d="M64,28.7a1.751,1.751,0,0,0,1.75-1.75V24.207a1.75,1.75,0,1,0-3.5,0v2.744A1.751,1.751,0,0,0,64,28.7Z"/>
    <path d="M91.793,50.25H89.049a1.75,1.75,0,0,0,0,3.5h2.744a1.75,1.75,0,0,0,0-3.5Z"/>
    <path d="M40.7,52a1.751,1.751,0,0,0-1.75-1.75H36.207a1.75,1.75,0,1,0,0,3.5h2.744A1.751,1.751,0,0,0,40.7,52Z"/>
    <path d="M88.944,64.381l-2.376-1.372a1.75,1.75,0,1,0-1.75,3.031l2.376,1.372a1.75,1.75,0,1,0,1.75-3.031Z"/>
    <path d="M43.182,37.96l-2.376-1.372a1.75,1.75,0,1,0-1.75,3.031l2.376,1.372a1.75,1.75,0,1,0,1.75-3.031Z"/>
    <path d="M85.694,41.226a1.747,1.747,0,0,0,.874-.235l2.376-1.372a1.75,1.75,0,1,0-1.75-3.031L84.818,37.96a1.75,1.75,0,0,0,.876,3.266Z"/>
    <path d="M52.991,29.432l-1.372-2.376a1.75,1.75,0,1,0-3.031,1.75l1.372,2.376a1.75,1.75,0,1,0,3.031-1.75Z"/>
    <path d="M73.277,67.19H54.723a1.751,1.751,0,0,0-1.75,1.75v7.289a1.751,1.751,0,0,0,1.75,1.75H73.277a1.751,1.751,0,0,0,1.75-1.75V68.94A1.751,1.751,0,0,0,73.277,67.19Zm-1.75,7.289H56.473V70.69H71.527Z"/>
  </g>
</svg>
