<?xml version="1.0" encoding="utf-8"?>
<!-- Generator: Adobe Illustrator 18.0.0, SVG Export Plug-In . SVG Version: 6.00 Build 0)  -->
<!DOCTYPE svg PUBLIC "-//W3C//DTD SVG 1.1//EN" "http://www.w3.org/Graphics/SVG/1.1/DTD/svg11.dtd">
<svg version="1.1" id="Icon_Set" xmlns="http://www.w3.org/2000/svg" xmlns:xlink="http://www.w3.org/1999/xlink" x="0px" y="0px"
	 viewBox="0 0 512 512" style="enable-background:new 0 0 512 512;" xml:space="preserve">
<style type="text/css">
	.st0{fill:#4C4372;}
	.st1{fill:#F0C48A;}
	.st2{fill:#7BABF1;}
	.st3{fill:#D3E6F8;}
	.st4{fill:#A4CFF2;}
	.st5{fill:#FD919E;}
	.st6{fill:#E8677D;}
	.st7{fill:#FFFFFF;}
</style>
<g>
	<g>
		<g>
			<circle class="st1" cx="256" cy="256" r="207"/>
		</g>
	</g>
	<g>
		<g>
			<g>
				<circle class="st3" cx="251.738" cy="94.065" r="19.762"/>
			</g>
		</g>
		<g>
			<g>
				<g>
					<path class="st3" d="M395.87,383.026H116.13c-60.899,0-110.267-49.368-110.267-110.267v0
						c0-60.899,49.368-110.267,110.267-110.267h279.74c60.899,0,110.267,49.368,110.267,110.267v0
						C506.137,333.657,456.769,383.026,395.87,383.026z"/>
				</g>
			</g>
		</g>
		<g>
			<g>
				<path class="st5" d="M155.496,131.727h86.462c6.749,0,12.221,5.471,12.221,12.221v18.543H143.275v-18.543
					C143.275,137.198,148.746,131.727,155.496,131.727z"/>
			</g>
		</g>
		<g>
			<g>
				<path class="st6" d="M241.957,131.727h-26.612c6.749,0,12.221,5.471,12.221,12.221v18.543h26.612v-18.543
					C254.178,137.198,248.706,131.727,241.957,131.727z"/>
			</g>
		</g>
		<g>
			<g>
				<rect x="185.202" y="74.303" class="st5" width="27.048" height="57.424"/>
			</g>
		</g>
		<g>
			<g>
				<path class="st4" d="M395.87,162.491h-57.274c60.899,0,110.268,49.368,110.268,110.268l0,0
					c0,60.899-49.368,110.268-110.268,110.268h57.274c60.899,0,110.267-49.369,110.267-110.268l0,0
					C506.137,211.859,456.769,162.491,395.87,162.491z"/>
			</g>
		</g>
		<g>
			<g>
				<g>
					<path class="st0" d="M395.87,388.888H116.13C52.096,388.888,0,336.793,0,272.759c0-64.034,52.096-116.131,116.13-116.131
						h279.74c64.034,0,116.13,52.095,116.13,116.13C512,336.792,459.905,388.888,395.87,388.888z M116.13,168.353
						c-57.569,0-104.405,46.836-104.405,104.404c0,57.57,46.836,104.406,104.405,104.406h279.74
						c57.569,0,104.405-46.836,104.405-104.405c0-57.57-46.836-104.406-104.405-104.406H116.13z"/>
				</g>
			</g>
		</g>
		<g>
			<g>
				<path class="st5" d="M339.524,321.88L339.524,321.88c8.544,0,16.37,3.063,22.45,8.145V154.748h-44.9v175.276
					C323.154,324.942,330.98,321.88,339.524,321.88z"/>
			</g>
		</g>
		<g>
			<g>
				<path class="st0" d="M361.975,335.887c-1.349,0-2.686-0.466-3.761-1.365c-5.231-4.372-11.868-6.78-18.69-6.78
					c-6.822,0-13.459,2.408-18.69,6.78c-1.747,1.461-4.179,1.778-6.243,0.813c-2.062-0.964-3.38-3.034-3.38-5.311V154.748
					c0-3.238,2.625-5.863,5.863-5.863h44.9c3.238,0,5.863,2.625,5.863,5.863v175.277c0,2.277-1.318,4.347-3.38,5.311
					C363.665,335.706,362.817,335.887,361.975,335.887z M322.936,160.611v158.928c5.189-2.303,10.842-3.521,16.588-3.521
					s11.399,1.218,16.587,3.521V160.611H322.936z"/>
			</g>
		</g>
		<g>
			<g>
				<g>
					<circle class="st2" cx="135.555" cy="386.238" r="51.458"/>
				</g>
			</g>
		</g>
		<g>
			<g>
				<g>
					<circle class="st7" cx="135.555" cy="386.238" r="24.043"/>
				</g>
			</g>
		</g>
		<g>
			<g>
				<g>
					<path class="st0" d="M135.555,443.559c-31.607,0-57.321-25.714-57.321-57.321c0-31.607,25.714-57.321,57.321-57.321
						c31.607,0,57.321,25.714,57.321,57.321C192.875,417.845,167.162,443.559,135.555,443.559z M135.555,340.643
						c-25.142,0-45.596,20.454-45.596,45.595c0,25.141,20.454,45.596,45.596,45.596c25.141,0,45.595-20.454,45.595-45.596
						C181.15,361.097,160.696,340.643,135.555,340.643z"/>
				</g>
			</g>
		</g>
		<g>
			<g>
				<g>
					<path class="st0" d="M135.555,416.143c-16.49,0-29.906-13.415-29.906-29.905c0-16.49,13.416-29.905,29.906-29.905
						c16.49,0,29.905,13.416,29.905,29.905C165.46,402.728,152.044,416.143,135.555,416.143z M135.555,368.058
						c-10.025,0-18.18,8.156-18.18,18.18c0,10.024,8.156,18.179,18.18,18.179c10.024,0,18.18-8.156,18.18-18.179
						C153.735,376.214,145.579,368.058,135.555,368.058z"/>
				</g>
			</g>
		</g>
		<g>
			<g>
				<path class="st0" d="M275.51,210.995H172.114c-3.238,0-5.863-2.625-5.863-5.863s2.625-5.863,5.863-5.863H275.51
					c3.238,0,5.863,2.625,5.863,5.863S278.748,210.995,275.51,210.995z"/>
			</g>
		</g>
		<g>
			<g>
				<path class="st0" d="M275.51,248.249H172.114c-3.238,0-5.863-2.625-5.863-5.862c0-3.238,2.625-5.863,5.863-5.863H275.51
					c3.238,0,5.863,2.625,5.863,5.863C281.373,245.624,278.748,248.249,275.51,248.249z"/>
			</g>
		</g>
		<g>
			<g>
				<path class="st0" d="M275.51,285.503H172.114c-3.238,0-5.863-2.625-5.863-5.863c0-3.238,2.625-5.863,5.863-5.863H275.51
					c3.238,0,5.863,2.625,5.863,5.863C281.373,282.878,278.748,285.503,275.51,285.503z"/>
			</g>
		</g>
		<g>
			<g>
				<path class="st0" d="M254.178,168.353H143.275c-3.238,0-5.863-2.625-5.863-5.863v-18.543c0-9.971,8.112-18.083,18.083-18.083
					h86.461c9.971,0,18.083,8.112,18.083,18.083v18.543C260.041,165.728,257.416,168.353,254.178,168.353z M149.137,156.628h99.178
					v-12.68c0-3.506-2.852-6.358-6.358-6.358h-86.461c-3.506,0-6.358,2.852-6.358,6.358V156.628z"/>
			</g>
		</g>
		<g>
			<g>
				<path class="st0" d="M212.25,137.59h-27.048c-3.238,0-5.863-2.625-5.863-5.863V74.303c0-3.238,2.625-5.863,5.863-5.863h27.048
					c3.238,0,5.863,2.625,5.863,5.863v57.424C218.113,134.965,215.488,137.59,212.25,137.59z M191.065,125.865h15.323V80.166
					h-15.323V125.865z"/>
			</g>
		</g>
		<g>
			<g>
				<path class="st0" d="M251.738,119.69c-14.129,0-25.625-11.495-25.625-25.625c0-14.129,11.495-25.624,25.625-25.624
					s25.624,11.495,25.624,25.624C277.363,108.195,265.867,119.69,251.738,119.69z M251.738,80.166
					c-7.664,0-13.899,6.235-13.899,13.899s6.235,13.9,13.899,13.9s13.899-6.236,13.899-13.9S259.402,80.166,251.738,80.166z"/>
			</g>
		</g>
		<g>
			<g>
				<path class="st0" d="M231.976,99.927H212.25c-3.238,0-5.863-2.625-5.863-5.863c0-3.238,2.625-5.863,5.863-5.863h19.726
					c3.238,0,5.863,2.625,5.863,5.863C237.839,97.302,235.214,99.927,231.976,99.927z"/>
			</g>
		</g>
		<g>
			<g>
				<path class="st5" d="M339.524,321.88L339.524,321.88c-19.347,0-35.03,15.684-35.03,35.03v53.371h70.06V356.91
					C374.554,337.564,358.871,321.88,339.524,321.88z"/>
			</g>
		</g>
		<g>
			<g>
				<path class="st6" d="M339.524,321.88L339.524,321.88c-3.928,0-7.7,0.656-11.225,1.849c13.839,4.68,23.805,17.763,23.805,33.182
					v53.371h22.45V356.91C374.554,337.564,358.871,321.88,339.524,321.88z"/>
			</g>
		</g>
		<g>
			<g>
				<circle class="st7" cx="339.524" cy="358.196" r="13"/>
			</g>
		</g>
		<g>
			<g>
				<path class="st6" d="M389.491,410.361h-99.935c-7.548,0-13.668,6.119-13.668,13.668l0,0c0,7.548,6.119,13.668,13.668,13.668
					h99.935c7.548,0,13.668-6.119,13.668-13.668l0,0C403.159,416.481,397.04,410.361,389.491,410.361z"/>
			</g>
		</g>
		<g>
			<g>
				<path class="st0" d="M389.491,443.559h-99.935c-10.769,0-19.531-8.762-19.531-19.531s8.762-19.53,19.531-19.53h99.935
					c10.769,0,19.53,8.76,19.53,19.53S400.26,443.559,389.491,443.559z M289.557,416.224c-4.304,0-7.805,3.501-7.805,7.804
					c0,4.303,3.501,7.805,7.805,7.805h99.935c4.304,0,7.805-3.502,7.805-7.805c0-4.303-3.501-7.804-7.805-7.804H289.557z"/>
			</g>
		</g>
		<g>
			<g>
				<path class="st0" d="M374.554,416.144h-70.06c-3.238,0-5.863-2.625-5.863-5.863V356.91c0-22.549,18.344-40.893,40.892-40.893
					c22.548,0,40.893,18.344,40.893,40.893v53.371C380.417,413.519,377.792,416.144,374.554,416.144z M310.357,404.419h58.334
					V356.91c0-16.083-13.084-29.168-29.167-29.168c-16.083,0-29.167,13.085-29.167,29.168V404.419z"/>
			</g>
		</g>
		<g>
			<g>
				<path class="st0" d="M339.524,377.058c-10.401,0-18.863-8.462-18.863-18.863c0-10.401,8.462-18.863,18.863-18.863
					c10.401,0,18.863,8.462,18.863,18.863C358.387,368.596,349.925,377.058,339.524,377.058z M339.524,351.058
					c-3.936,0-7.137,3.202-7.137,7.137c0,3.935,3.202,7.137,7.137,7.137s7.137-3.202,7.137-7.137
					C346.662,354.26,343.46,351.058,339.524,351.058z"/>
			</g>
		</g>
	</g>
</g>
</svg>
