<svg xmlns="http://www.w3.org/2000/svg" width="22" height="22" viewBox="0 0 128 128">
  <title>REPORT</title>
  <g>
    <path d="M108.125,19.5h-12.5V7a1.749,1.749,0,0,0-1.75-1.75h-74A1.749,1.749,0,0,0,18.125,7v99.75a1.749,1.749,0,0,0,1.75,1.75h12.5V121a1.749,1.749,0,0,0,1.75,1.75h74a1.749,1.749,0,0,0,1.75-1.75V21.25A1.749,1.749,0,0,0,108.125,19.5ZM21.625,8.75h70.5V105h-70.5Zm84.75,110.5h-70.5V108.5h58a1.749,1.749,0,0,0,1.75-1.75V23h10.75Z"/>
    <path d="M34.125,80h45.5a1.75,1.75,0,0,0,0-3.5h-45.5a1.75,1.75,0,0,0,0,3.5Z"/>
    <path d="M56.875,94.25a1.75,1.75,0,0,0,0-3.5H34.125a1.75,1.75,0,0,0,0,3.5Z"/>
    <path d="M56.875,65.75A23.125,23.125,0,1,0,33.75,42.625,23.151,23.151,0,0,0,56.875,65.75Zm0-3.5A19.6,19.6,0,0,1,40.84,53.9l9.081-5.243a7.743,7.743,0,0,0,14.7-3.4c0-.3-.027-.592-.049-.886H76.411A19.643,19.643,0,0,1,56.875,62.25Zm0-25.828c1.576,1.662,4.247,5.041,4.247,8.839a4.25,4.25,0,0,1-8.5,0C52.625,41.482,55.3,38.091,56.878,36.422Zm19.533,4.453H63.805a21.308,21.308,0,0,0-5.18-7.658V23.089A19.642,19.642,0,0,1,76.411,40.875ZM55.125,23.089V33.217c-1.634,1.558-5.9,6.167-5.99,11.855l-10.044,5.8A19.569,19.569,0,0,1,55.125,23.089Z"/>
  </g>
</svg>
