<?xml version="1.0" encoding="iso-8859-1"?>
<!-- Generator: Adobe Illustrator 19.0.0, SVG Export Plug-In . SVG Version: 6.00 Build 0)  -->
<svg version="1.1" id="Capa_1" xmlns="http://www.w3.org/2000/svg" xmlns:xlink="http://www.w3.org/1999/xlink" x="0px" y="0px"
	 viewBox="0 0 512 512" style="enable-background:new 0 0 512 512;" xml:space="preserve">
<g>
	<g>
		<path d="M512,191v-30H366v-15h-75v-30h45V86h-45V56h-30v30h-45v30h45v30h-75v15H75c-41.355,0-75,33.645-75,75v145
			c0,41.355,33.645,75,75,75h437v-30H291v-50h221v-30H110v-75h76v15h180v-15h146v-30H366v-50H512z M261,376v50H75
			c-24.813,0-45-20.187-45-45v-57.18h50V376H261z M186,241H80v52.82H30V236c0-24.813,20.187-45,45-45h111V241z M336,256H216v-80h120
			V256z"/>
	</g>
</g>
<g>
</g>
<g>
</g>
<g>
</g>
<g>
</g>
<g>
</g>
<g>
</g>
<g>
</g>
<g>
</g>
<g>
</g>
<g>
</g>
<g>
</g>
<g>
</g>
<g>
</g>
<g>
</g>
<g>
</g>
</svg>
