<svg xmlns="http://www.w3.org/2000/svg" width="22" height="22" viewBox="0 0 128 128">
  <title>PIPELINE</title>
  <path d="M121,53.605H97.268V38.65H121a1.75,1.75,0,0,0,0-3.5H97.237a4.742,4.742,0,0,0-4.719-4.45H76.944l-3.207-7.4a1.75,1.75,0,0,0-1.606-1.054H69.514V16.973h9.738a5.862,5.862,0,0,0,0-11.723h-30.5a5.862,5.862,0,0,0,0,11.723h9.738v5.272H55.869A1.75,1.75,0,0,0,54.263,23.3l-3.207,7.4H35.482a4.742,4.742,0,0,0-4.719,4.451H7a1.75,1.75,0,0,0,0,3.5H30.732V53.605H7a1.75,1.75,0,0,0,0,3.5H30.763a4.742,4.742,0,0,0,4.719,4.45H48.573V72.762a4.742,4.742,0,0,0,4.45,4.72V121a1.75,1.75,0,0,0,3.5,0V77.512H71.477V121a1.75,1.75,0,0,0,3.5,0V77.482a4.742,4.742,0,0,0,4.45-4.72V61.555H92.518a4.742,4.742,0,0,0,4.719-4.45H121a1.75,1.75,0,0,0,0-3.5ZM46.387,11.111A2.363,2.363,0,0,1,48.748,8.75h30.5a2.362,2.362,0,0,1,0,4.723h-30.5A2.364,2.364,0,0,1,46.387,11.111Zm15.6,5.862h4.028v5.272H61.986Zm-4.968,8.772H70.982L73.129,30.7H54.871Zm36.75,31.06a1.252,1.252,0,0,1-1.25,1.25H77.677a1.75,1.75,0,0,0-1.75,1.75V72.762a1.25,1.25,0,0,1-1.25,1.25H53.323a1.25,1.25,0,0,1-1.25-1.25V59.805a1.75,1.75,0,0,0-1.75-1.75H35.482a1.252,1.252,0,0,1-1.25-1.25V35.45a1.252,1.252,0,0,1,1.25-1.25H92.518a1.252,1.252,0,0,1,1.25,1.25Z"/>
</svg>
