<svg xmlns="http://www.w3.org/2000/svg" width="22" height="22" viewBox="0 0 128 128">
  <title>REFINERY</title>
  <g>
    <path d="M41.475,102.058H38.721a1.75,1.75,0,1,0,0,3.5h2.754a1.75,1.75,0,1,0,0-3.5Z"/>
    <path d="M29.474,102.058H26.72a1.75,1.75,0,0,0,0,3.5h2.754a1.75,1.75,0,1,0,0-3.5Z"/>
    <path d="M53.476,102.058H50.722a1.75,1.75,0,1,0,0,3.5h2.754a1.75,1.75,0,0,0,0-3.5Z"/>
    <path d="M65.477,102.058H62.724a1.75,1.75,0,0,0,0,3.5h2.753a1.75,1.75,0,0,0,0-3.5Z"/>
    <path d="M77.478,102.058H74.725a1.75,1.75,0,0,0,0,3.5h2.753a1.75,1.75,0,0,0,0-3.5Z"/>
    <path d="M89.479,102.058H86.726a1.75,1.75,0,0,0,0,3.5h2.753a1.75,1.75,0,0,0,0-3.5Z"/>
    <path d="M121,119.25h-7.529L109.72,31.659l4.433-7.482a1.749,1.749,0,0,0,.244-.892V15.736a1.75,1.75,0,0,0-1.75-1.75h-10.9V7a1.75,1.75,0,0,0-3.5,0v6.986h-10.9a1.75,1.75,0,0,0-1.75,1.75v7.549a1.749,1.749,0,0,0,.244.892l4.433,7.482L87.659,92.6H78.348V60.409a6.758,6.758,0,0,0-6.75-6.75H68.2v-2.99a6.758,6.758,0,0,0-6.75-6.75H42.7a6.758,6.758,0,0,0-6.75,6.75v2.99h-3.4a6.757,6.757,0,0,0-6.75,6.75V92.6H16.2a1.751,1.751,0,0,0-1.75,1.75v24.9H7a1.75,1.75,0,0,0,0,3.5H121a1.75,1.75,0,0,0,0-3.5ZM93.035,29.463l-2.623-4.428h19.165l-2.624,4.428ZM110.9,17.486v4.049H89.091V17.486ZM93.714,32.963h12.56l3.695,86.287h-8.225v-24.9a1.75,1.75,0,0,0-1.75-1.75H91.161ZM74.848,60.409V92.6h-16.8V60.409a3.254,3.254,0,0,1,3.25-3.25H71.6A3.254,3.254,0,0,1,74.848,60.409Zm-35.4-9.74a3.254,3.254,0,0,1,3.25-3.25H61.45a3.254,3.254,0,0,1,3.25,3.25v2.99H61.3a6.757,6.757,0,0,0-6.75,6.75V92.6H49.592V60.409a6.757,6.757,0,0,0-6.75-6.75h-3.4ZM29.3,60.409a3.254,3.254,0,0,1,3.25-3.25h10.3a3.254,3.254,0,0,1,3.25,3.25V92.6H29.3ZM17.955,96.1H98.244V119.25H17.955Z"/>
  </g>
</svg>
