<svg xmlns="http://www.w3.org/2000/svg" width="128" height="128" viewBox="0 0 128 128">
  <title>POWER LINE</title>
  <g>
    <path d="M77.53,12.19H50.47a1.75,1.75,0,0,0-1.75,1.75V92.169a1.749,1.749,0,0,0,1.75,1.75H77.53a1.749,1.749,0,0,0,1.75-1.75V13.94A1.75,1.75,0,0,0,77.53,12.19ZM52.22,35.247H75.78V51.305H52.22Zm0,19.558H75.78V70.862H52.22ZM75.78,15.69V31.747H52.22V15.69ZM52.22,90.419V74.362H75.78V90.419Z"/>
    <path d="M121,39.011h-3.493V27.554a1.75,1.75,0,0,0-1.537-1.737L86.22,22.17V7a1.751,1.751,0,0,0-1.75-1.75H43.53A1.751,1.751,0,0,0,41.78,7V22.17L12.03,25.817a1.75,1.75,0,0,0-1.537,1.737V39.011H7a1.75,1.75,0,0,0-1.75,1.75v9.794a4.255,4.255,0,0,0,4.25,4.25h5.485a4.255,4.255,0,0,0,4.25-4.25V40.761a1.749,1.749,0,0,0-1.75-1.75H13.993V35.247H41.78V97.508L33.489,119.25h-8a1.75,1.75,0,0,0,0,3.5h77.022a1.75,1.75,0,0,0,0-3.5h-8L86.22,97.508V35.247h27.787v3.764h-3.492a1.749,1.749,0,0,0-1.75,1.75v9.794a4.255,4.255,0,0,0,4.25,4.25H118.5a4.255,4.255,0,0,0,4.25-4.25V40.761A1.75,1.75,0,0,0,121,39.011ZM15.735,50.555a.751.751,0,0,1-.75.75H9.5a.751.751,0,0,1-.75-.75V42.511h6.985ZM13.993,31.747V29.1L41.78,25.7v6.051Zm30.669,87.5,7.013-18.391h24.65l7.013,18.391Zm46.1,0H87.084L79.166,98.485a1.751,1.751,0,0,0-1.636-1.126H50.47a1.751,1.751,0,0,0-1.636,1.126L40.916,119.25H37.235l7.931-20.8a1.771,1.771,0,0,0,.114-.623V8.75H82.72V97.831a1.771,1.771,0,0,0,.114.623Zm-4.545-87.5V25.7L114.007,29.1v2.645Zm33.03,18.808a.751.751,0,0,1-.75.75h-5.485a.751.751,0,0,1-.75-.75V42.511h6.985Z"/>
  </g>
</svg>
