<?xml version="1.0" encoding="utf-8"?>
<!-- Generator: Adobe Illustrator 18.0.0, SVG Export Plug-In . SVG Version: 6.00 Build 0)  -->
<!DOCTYPE svg PUBLIC "-//W3C//DTD SVG 1.1//EN" "http://www.w3.org/Graphics/SVG/1.1/DTD/svg11.dtd">
<svg version="1.1" id="Icon_Set" xmlns="http://www.w3.org/2000/svg" xmlns:xlink="http://www.w3.org/1999/xlink" x="0px" y="0px"
	 viewBox="0 0 512 512" style="enable-background:new 0 0 512 512;" xml:space="preserve">
<style type="text/css">
	.st0{fill:#4C4372;}
	.st1{fill:#F0C48A;}
	.st2{fill:#7BABF1;}
	.st3{fill:#D3E6F8;}
	.st4{fill:#A4CFF2;}
	.st5{fill:#FD919E;}
	.st6{fill:#E8677D;}
	.st7{fill:#FFFFFF;}
</style>
<g>
	<g>
		<g>
			<circle class="st1" cx="256" cy="256" r="207"/>
		</g>
	</g>
	<g>
		<g>
			<g>
				<polygon class="st4" points="56.995,193.946 56.995,137.502 247.654,82.824 438.314,137.502 438.314,193.946 				"/>
			</g>
		</g>
		<g>
			<g>
				<polygon class="st2" points="363.21,193.946 438.314,193.946 438.314,137.502 363.21,115.964 				"/>
			</g>
		</g>
		<g>
			<g>
				<rect x="88.277" y="193.946" class="st3" width="318.755" height="312.191"/>
			</g>
		</g>
		<g>
			<g>
				<rect x="363.21" y="193.946" class="st4" width="43.822" height="312.191"/>
			</g>
		</g>
		<g>
			<g>
				<path class="st6" d="M379.293,120.576V27.302c0-11.841-9.599-21.44-21.44-21.44h0c-11.841,0-21.44,9.599-21.44,21.44v80.976
					L379.293,120.576z"/>
			</g>
		</g>
		<g>
			<g>
				<path class="st5" d="M158.895,108.279V27.302c0-11.841-9.599-21.44-21.44-21.44h0c-11.841,0-21.439,9.599-21.439,21.44v93.273
					L158.895,108.279z"/>
			</g>
		</g>
		<g>
			<g>
				<g>
					<g>
						<polygon class="st5" points="231.51,230.66 291.327,230.66 261.418,309.509 314.438,309.509 183.798,480.802 235.589,355.731 
							180.871,355.731 						"/>
					</g>
				</g>
			</g>
		</g>
		<g>
			<g>
				<g>
					<g>
						<path class="st0" d="M183.795,486.665c-0.996,0-2.003-0.254-2.92-0.781c-2.553-1.469-3.619-4.604-2.493-7.324l48.434-116.965
							h-45.945c-1.949,0-3.772-0.969-4.862-2.586c-1.09-1.617-1.304-3.67-0.573-5.477l50.639-125.071
							c0.896-2.213,3.046-3.662,5.434-3.662h59.817c1.927,0,3.73,0.947,4.824,2.533c1.094,1.585,1.341,3.608,0.658,5.409
							l-26.896,70.907h44.525c2.229,0,4.265,1.264,5.254,3.262c0.99,1.998,0.759,4.384-0.593,6.156L188.46,484.357
							C187.316,485.858,185.572,486.665,183.795,486.665z M189.57,349.869h46.019c1.958,0,3.786,0.978,4.874,2.605
							c1.088,1.628,1.292,3.691,0.543,5.5l-34.565,83.473l96.153-126.075h-41.175c-1.927,0-3.73-0.947-4.825-2.533
							c-1.094-1.585-1.34-3.608-0.657-5.409l26.896-70.907h-47.371L189.57,349.869z"/>
					</g>
				</g>
			</g>
		</g>
		<g>
			<g>
				<path class="st0" d="M407.032,512H88.277c-3.238,0-5.863-2.625-5.863-5.863V193.946c0-3.238,2.625-5.863,5.863-5.863h318.756
					c3.238,0,5.863,2.625,5.863,5.863v312.191C412.895,509.375,410.27,512,407.032,512z M94.139,500.275H401.17V199.809H94.139
					V500.275z"/>
			</g>
		</g>
		<g>
			<g>
				<path class="st0" d="M379.293,126.438c-0.541,0-1.085-0.075-1.616-0.227l-42.88-12.297c-2.513-0.721-4.246-3.02-4.246-5.635
					V27.302C330.551,12.248,342.799,0,357.853,0c15.054,0,27.302,12.248,27.302,27.302v93.273c0,1.841-0.865,3.574-2.335,4.682
					C381.793,126.032,380.552,126.438,379.293,126.438z M342.276,103.861l31.155,8.934V27.302c0-8.589-6.988-15.577-15.577-15.577
					c-8.59,0-15.577,6.988-15.577,15.577V103.861z"/>
			</g>
		</g>
		<g>
			<g>
				<path class="st0" d="M116.016,126.438c-1.259,0-2.5-0.406-3.528-1.18c-1.47-1.108-2.335-2.842-2.335-4.682V27.302
					C110.154,12.248,122.401,0,137.455,0c15.054,0,27.302,12.248,27.302,27.302v80.976c0,2.615-1.733,4.915-4.246,5.635
					l-42.879,12.297C117.101,126.363,116.557,126.438,116.016,126.438z M137.456,11.725c-8.59,0-15.577,6.988-15.577,15.577v85.493
					l31.154-8.934V27.302C153.032,18.713,146.045,11.725,137.456,11.725z"/>
			</g>
		</g>
		<g>
			<g>
				<path class="st0" d="M438.314,199.809H56.995c-3.238,0-5.863-2.625-5.863-5.863v-56.444c0-2.615,1.733-4.915,4.246-5.636
					l190.659-54.678c1.057-0.302,2.176-0.302,3.233,0l190.659,54.678c2.513,0.721,4.246,3.02,4.246,5.636v56.444
					C444.177,197.184,441.552,199.809,438.314,199.809z M62.858,188.083h369.594v-46.164L247.655,88.923L62.858,141.919V188.083z"/>
			</g>
		</g>
		<g>
			<g>
				<path class="st0" d="M173.145,47.71h-71.679c-3.237,0-5.862-2.625-5.862-5.863c0-3.238,2.625-5.863,5.862-5.863h71.679
					c3.238,0,5.863,2.625,5.863,5.863C179.008,45.085,176.383,47.71,173.145,47.71z"/>
			</g>
		</g>
		<g>
			<g>
				<path class="st0" d="M173.145,82.296h-71.679c-3.237,0-5.862-2.625-5.862-5.863c0-3.238,2.625-5.863,5.862-5.863h71.679
					c3.238,0,5.863,2.625,5.863,5.863C179.008,79.671,176.383,82.296,173.145,82.296z"/>
			</g>
		</g>
		<g>
			<g>
				<path class="st0" d="M393.693,47.71h-71.679c-3.238,0-5.863-2.625-5.863-5.863c0-3.238,2.625-5.863,5.863-5.863h71.679
					c3.238,0,5.863,2.625,5.863,5.863C399.555,45.085,396.93,47.71,393.693,47.71z"/>
			</g>
		</g>
		<g>
			<g>
				<path class="st0" d="M393.693,82.296h-71.679c-3.238,0-5.863-2.625-5.863-5.863c0-3.238,2.625-5.863,5.863-5.863h71.679
					c3.238,0,5.863,2.625,5.863,5.863C399.555,79.671,396.93,82.296,393.693,82.296z"/>
			</g>
		</g>
		<g>
			<g>
				<path class="st0" d="M455.005,512c-3.238,0-5.863-2.625-5.863-5.863V319.536c0-6.527-5.309-11.836-11.836-11.836h-30.274
					c-3.238,0-5.863-2.625-5.863-5.863c0-3.238,2.625-5.863,5.863-5.863h30.274c12.991,0,23.561,10.57,23.561,23.562v186.602
					C460.867,509.375,458.242,512,455.005,512z"/>
			</g>
		</g>
		<g>
			<g>
				<path class="st0" d="M455.005,460.645c-3.238,0-5.863-2.625-5.863-5.863v-83.686c0-6.527-5.309-11.836-11.836-11.836h-30.274
					c-3.238,0-5.863-2.625-5.863-5.863c0-3.238,2.625-5.863,5.863-5.863h30.274c12.991,0,23.561,10.57,23.561,23.562v83.686
					C460.867,458.02,458.242,460.645,455.005,460.645z"/>
			</g>
		</g>
		<g>
			<g>
				<path class="st0" d="M455.005,460.645c-3.238,0-5.863-2.625-5.863-5.863v-32.993c0-6.527-5.309-11.836-11.836-11.836h-30.274
					c-3.238,0-5.863-2.625-5.863-5.863c0-3.238,2.625-5.863,5.863-5.863h30.274c12.991,0,23.561,10.57,23.561,23.561v32.993
					C460.867,458.02,458.242,460.645,455.005,460.645z"/>
			</g>
		</g>
		<g>
			<g>
				<path class="st0" d="M435.336,171.381H56.995c-3.238,0-5.863-2.625-5.863-5.863c0-3.238,2.625-5.863,5.863-5.863h378.341
					c3.238,0,5.863,2.625,5.863,5.863C441.198,168.756,438.573,171.381,435.336,171.381z"/>
			</g>
		</g>
		<g>
			<g>
				<g>
					<path class="st0" d="M334.871,480.802h-19.496c-0.075,0-0.135-0.061-0.135-0.136V461.17c0-0.075,0.061-0.135,0.135-0.135
						h19.496c0.075,0,0.136,0.061,0.136,0.135v19.496C335.007,480.741,334.946,480.802,334.871,480.802z"/>
				</g>
			</g>
		</g>
		<g>
			<g>
				<g>
					<path class="st0" d="M373.244,480.802h-19.497c-0.075,0-0.136-0.061-0.136-0.136V461.17c0-0.075,0.061-0.135,0.136-0.135
						h19.497c0.075,0,0.135,0.061,0.135,0.135v19.496C373.379,480.741,373.319,480.802,373.244,480.802z"/>
				</g>
			</g>
		</g>
		<g>
			<g>
				<g>
					<path class="st0" d="M137.451,250.428h-19.496c-0.075,0-0.136-0.061-0.136-0.136v-19.497c0-0.075,0.061-0.135,0.136-0.135
						h19.496c0.075,0,0.135,0.061,0.135,0.135v19.497C137.586,250.367,137.525,250.428,137.451,250.428z"/>
				</g>
			</g>
		</g>
		<g>
			<g>
				<g>
					<path class="st0" d="M175.823,250.428h-19.496c-0.075,0-0.136-0.061-0.136-0.136v-19.497c0-0.075,0.061-0.135,0.136-0.135
						h19.496c0.075,0,0.136,0.061,0.136,0.135v19.497C175.958,250.367,175.898,250.428,175.823,250.428z"/>
				</g>
			</g>
		</g>
	</g>
</g>
</svg>
