<?xml version="1.0" encoding="iso-8859-1"?>
<!-- Generator: Adobe Illustrator 19.0.0, SVG Export Plug-In . SVG Version: 6.00 Build 0)  -->
<svg version="1.1" id="Capa_1" xmlns="http://www.w3.org/2000/svg" xmlns:xlink="http://www.w3.org/1999/xlink" x="0px" y="0px"
	 viewBox="0 0 512 512" style="enable-background:new 0 0 512 512;" xml:space="preserve">
<g>
	<g>
		<path d="M461,86.618L320.246,0H191.754L51,86.618V150h126.323l-73.37,332H56v30h400v-30h-47.953l-73.37-332H461V86.618z M211,30
			h90v90h-90V30z M208.047,150h95.906l8.457,38.269L256,269.393l-56.41-81.124L208.047,150z M81,120v-16.618l100-61.538V120H81z
			 M190.777,228.145l46.952,67.522L147.03,426.102L190.777,228.145z M144.701,482L256,321.941L367.299,482H144.701z
			 M364.969,426.102L274.27,295.667l46.952-67.522L364.969,426.102z M431,120H331V41.843l100,61.539V120z"/>
	</g>
</g>
<g>
</g>
<g>
</g>
<g>
</g>
<g>
</g>
<g>
</g>
<g>
</g>
<g>
</g>
<g>
</g>
<g>
</g>
<g>
</g>
<g>
</g>
<g>
</g>
<g>
</g>
<g>
</g>
<g>
</g>
</svg>
