<svg fill="#ffffff" xmlns="http://www.w3.org/2000/svg"  viewBox="0 0 16 16" width="16px" height="16px"><path d="M 6.5 4 C 6.371094 4.003906 6.25 4.054688 6.15625 4.140625 C 5.519531 4.3125 5 4.808594 5 5.5 L 5 5.808594 L 3.539063 7.414063 C 3.53125 7.425781 3.519531 7.433594 3.511719 7.445313 C 3.15625 7.90625 3 8.449219 3 9 C 3 9.871094 3.542969 10.699219 4.035156 11.40625 C 4.511719 12.085938 4.953125 12.574219 4.984375 12.609375 C 5.675781 13.566406 6.867188 14 8 14 L 10 14 C 12.1875 14 14 12.214844 14 10.019531 L 14 6.5 C 14 5.808594 13.480469 5.3125 12.84375 5.140625 C 12.75 5.054688 12.628906 5.003906 12.5 5 C 12.273438 5 12.0625 5.054688 11.871094 5.148438 C 11.636719 4.621094 11.109375 4.25 10.5 4.25 C 10.371094 4.253906 10.25 4.304688 10.15625 4.390625 C 9.976563 4.441406 9.808594 4.523438 9.65625 4.625 C 9.445313 4.394531 9.160156 4.226563 8.84375 4.140625 C 8.75 4.054688 8.628906 4.003906 8.5 4 C 8.117188 4 7.765625 4.152344 7.5 4.390625 C 7.234375 4.152344 6.882813 4 6.5 4 Z M 6.5 5 C 6.78125 5 7 5.21875 7 5.5 L 7 7 L 8 7 L 8 5.5 C 8 5.21875 8.21875 5 8.5 5 C 8.78125 5 9 5.21875 9 5.5 L 9 7 L 10 7 L 10 5.75 C 10 5.46875 10.21875 5.25 10.5 5.25 C 10.78125 5.25 11 5.46875 11 5.75 L 11 7 L 12 7 L 12 6.5 C 12 6.21875 12.21875 6 12.5 6 C 12.78125 6 13 6.21875 13 6.5 L 13 10.019531 C 13 11.664063 11.648438 13 10 13 L 8 13 C 7.132813 13 6.238281 12.640625 5.796875 12.027344 C 5.785156 12.011719 5.773438 11.996094 5.761719 11.984375 C 5.761719 11.984375 5.308594 11.480469 4.855469 10.832031 C 4.402344 10.1875 4 9.359375 4 9 C 4 8.625 4.085938 8.339844 4.304688 8.054688 L 5 7.289063 L 5 9 L 6 9 L 6 5.5 C 6 5.21875 6.21875 5 6.5 5 Z"/></svg>