<svg fill="#ffffff" xmlns="http://www.w3.org/2000/svg"  viewBox="0 0 24 24" width="24px" height="24px"><path d="M 5.3027344 8.6015625 C 5.19 8.6211719 5.078125 8.6757812 4.984375 8.7695312 L 2.1738281 11.580078 C 1.9418281 11.812078 1.9418281 12.189875 2.1738281 12.421875 L 4.984375 15.232422 C 5.359375 15.606422 6 15.340547 6 14.810547 L 6 13 L 18 13 L 18 14.810547 C 18 15.340547 18.640625 15.606422 19.015625 15.232422 L 21.826172 12.421875 C 22.058172 12.189875 22.058172 11.812078 21.826172 11.580078 L 19.015625 8.7695312 C 18.640625 8.3945312 18 8.6594531 18 9.1894531 L 18 11 L 6 11 L 6 9.1894531 C 6 8.7919531 5.6409375 8.5427344 5.3027344 8.6015625 z"/></svg>