<?xml version="1.0"?><svg fill="#ffffff" xmlns="http://www.w3.org/2000/svg"  viewBox="0 0 100 100" width="100px" height="100px">    <path d="M 24.65625 17.976562 C 23.46025 17.976562 22.392094 18.684266 21.871094 19.822266 C 21.309094 21.046266 21.506141 22.484328 22.369141 23.486328 L 46.933594 52.019531 L 47.365234 84.988281 C 47.371234 85.424281 47.657219 85.806594 48.074219 85.933594 C 48.170219 85.962594 48.268234 85.976562 48.365234 85.976562 C 48.688234 85.976562 48.999453 85.819969 49.189453 85.542969 L 56.064453 75.542969 C 56.174453 75.381969 56.236234 75.190141 56.240234 74.994141 L 56.5625 57.792969 C 58.3595 60.159969 61.143844 61.621094 64.089844 61.621094 C 64.420844 61.621094 64.753891 61.601453 65.087891 61.564453 C 70.269891 60.981453 73.989813 56.112938 73.382812 50.710938 C 72.875812 46.211937 69.483391 42.668344 65.275391 42.027344 L 81.238281 23.484375 C 82.101281 22.482375 82.295375 21.045266 81.734375 19.822266 C 81.213375 18.684266 80.145219 17.976562 78.949219 17.976562 L 24.65625 17.976562 z M 24.65625 19.976562 L 78.949219 19.976562 C 79.541219 19.976562 79.824969 20.45225 79.917969 20.65625 C 80.096969 21.04625 80.153656 21.679688 79.722656 22.179688 L 54.919922 50.990234 C 54.767922 51.166234 54.682734 51.392 54.677734 51.625 L 54.246094 74.658203 L 49.322266 81.818359 L 48.933594 51.976562 L 53.427734 51.976562 C 53.703734 51.976562 53.927734 51.752563 53.927734 51.476562 C 53.927734 51.200562 53.703734 50.976563 53.427734 50.976562 L 48.673828 50.976562 L 25.429688 23.976562 L 64.427734 23.976562 C 64.703734 23.976562 64.927734 23.752562 64.927734 23.476562 C 64.927734 23.200563 64.703734 22.976562 64.427734 22.976562 L 24.570312 22.976562 L 23.884766 22.181641 C 23.453766 21.681641 23.509453 21.04725 23.689453 20.65625 C 23.782453 20.45225 24.06425 19.976563 24.65625 19.976562 z M 67.429688 22.976562 C 67.153688 22.976562 66.929688 23.200563 66.929688 23.476562 C 66.929688 23.752562 67.153688 23.976563 67.429688 23.976562 L 68.429688 23.976562 C 68.705687 23.976562 68.929688 23.752562 68.929688 23.476562 C 68.929688 23.200563 68.705687 22.976562 68.429688 22.976562 L 67.429688 22.976562 z M 70.429688 22.976562 C 70.153688 22.976562 69.929688 23.200563 69.929688 23.476562 C 69.929688 23.752562 70.153688 23.976563 70.429688 23.976562 L 73.429688 23.976562 C 73.705687 23.976562 73.929688 23.752562 73.929688 23.476562 C 73.929688 23.200563 73.705687 22.976562 73.429688 22.976562 L 70.429688 22.976562 z M 63.716797 43.839844 C 63.824797 43.881844 63.9385 43.914969 64.0625 43.917969 C 67.8005 44.000969 70.954531 47.016547 71.394531 50.935547 C 71.878531 55.241547 68.949281 59.118125 64.863281 59.578125 C 61.438281 59.966125 58.100219 57.7515 56.949219 54.3125 C 56.888219 54.1325 56.772719 53.994859 56.636719 53.880859 L 56.671875 52.023438 L 63.716797 43.839844 z"/></svg>